<?xml version="1.0" encoding="UTF-8" standalone="no"?>
<svg
   version="1.1"
   id="Layer_1"
   x="0px"
   y="0px"
   width="100%"
   viewBox="0 0 624 624"
   enable-background="new 0 0 624 624"
   xml:space="preserve"
   sodipodi:docname="InstaOutlines.svg"
   inkscape:version="1.3.2 (091e20e, 2023-11-25, custom)"
   xmlns:inkscape="http://www.inkscape.org/namespaces/inkscape"
   xmlns:sodipodi="http://sodipodi.sourceforge.net/DTD/sodipodi-0.dtd"
   xmlns="http://www.w3.org/2000/svg"
   xmlns:svg="http://www.w3.org/2000/svg"><defs
   id="defs3" /><sodipodi:namedview
   id="namedview3"
   pagecolor="#505050"
   bordercolor="#eeeeee"
   borderopacity="1"
   inkscape:showpageshadow="0"
   inkscape:pageopacity="0"
   inkscape:pagecheckerboard="0"
   inkscape:deskcolor="#505050"
   inkscape:zoom="1.2451923"
   inkscape:cx="273.45174"
   inkscape:cy="307.98456"
   inkscape:window-width="1920"
   inkscape:window-height="991"
   inkscape:window-x="-9"
   inkscape:window-y="-9"
   inkscape:window-maximized="1"
   inkscape:current-layer="Layer_1" />
<path
   fill="#000000"
   opacity="1"
   stroke="none"
   d="m 533.40454,367.00018 c -0.0104,13.33005 -0.0347,26.1601 -0.0284,38.99011 0.0296,60.53223 -42.28375,112.61176 -101.63614,124.89905 -7.98239,1.65247 -16.08194,2.54157 -24.3027,2.53046 -62.4838,-0.0841 -124.98352,0.82037 -187.44678,-0.3161 -51.26869,-0.93286 -88.79767,-25.93649 -112.39508,-71.36752 -9.203027,-17.71821 -13.063233,-36.84092 -13.009637,-56.88828 0.163948,-61.31714 0.02334,-122.63495 0.05527,-183.95251 0.0331,-63.55077 48.467737,-117.93142 111.494667,-125.395001 4.81903,-0.570671 9.61504,-0.854149 14.44596,-0.855461 61.98403,-0.0168 123.9682,-0.115807 185.95205,-0.01532 62.05317,0.100601 114.17966,44.296742 125.02249,105.565982 1.25648,7.09973 1.86928,14.15619 1.862,21.34135 -0.0491,48.32103 -0.0184,96.64214 -0.0137,145.46324 M 135.17506,251.5 c -0.005,51.48163 0.0394,102.96332 -0.0448,154.44479 -0.026,15.91434 3.88196,30.76294 12.27009,44.16983 17.17186,27.44602 41.9748,42.41507 74.56685,42.59031 61.80948,0.33233 123.62207,0.11126 185.43332,0.058 3.47892,-0.003 6.9726,-0.44748 10.43372,-0.88806 41.44806,-5.27637 74.69864,-42.20041 74.86712,-83.89343 0.25248,-62.47669 0.26716,-124.95618 -0.0218,-187.43262 -0.2127,-45.98255 -38.25164,-84.7892 -84.21124,-85.19068 -63.1391,-0.55154 -126.28934,-0.45317 -189.42992,0.0191 -40.8083,0.30527 -76.93824,32.81665 -82.83454,73.21039 -2.03324,13.92915 -0.61377,27.94331 -1.02874,42.91234 z"
   id="path1"
   style="display:inline;fill:#ffffff" />
<path
   fill="#000000"
   opacity="1"
   stroke="none"
   d="m 201.49747,303.63928 c 5.83001,-46.80508 30.14398,-79.43544 73.89349,-95.69079 57.09293,-21.21322 120.36404,7.0206 142.92548,62.37561 28.13882,69.03949 -14.53037,144.38037 -88.14087,155.63009 -60.28934,9.21387 -118.50341,-33.47747 -127.59253,-93.54678 -1.42282,-9.40332 -2.53108,-18.80686 -1.08557,-28.76813 m 155.8085,-47.44327 c -15.27658,-11.16922 -32.20871,-15.94993 -51.17764,-14.10707 -36.78559,3.57379 -68.49631,37.99794 -64.07753,79.43074 4.54979,42.66135 45.65086,72.52582 87.51786,63.16242 32.46851,-7.26151 56.98902,-37.00595 56.9199,-70.18588 -0.0494,-23.72022 -9.9451,-43.0904 -29.18259,-58.30021 z"
   id="path2"
   style="display:inline;fill:#ffffff" />
<path
   fill="#000000"
   opacity="1"
   stroke="none"
   d="m 406.99979,185.2182 c 5.4545,-10.93426 17.08227,-16.63158 28.90539,-14.4455 11.65683,2.15535 19.98645,11.17278 21.41583,23.18435 1.64289,13.80566 -6.49551,25.65959 -20.02911,29.17341 -12.43893,3.22963 -26.25751,-3.65773 -30.98852,-15.78299 -2.81952,-7.22621 -2.896,-14.60031 0.69641,-22.12927 z"
   id="path3"
   style="display:inline;fill:#ffffff" />
</svg>
